<svg xmlns="http://www.w3.org/2000/svg" viewBox="0 0 400.46 115.63"><defs><style>.cls-1{fill:#fff;}</style></defs><g id="Слой_2" data-name="Слой 2"><g id="Слой_1-2" data-name="Слой 1"><path class="cls-1" d="M106.47,3V0H146V3h-1.69c-1.75,0-2.91.32-3.46.95s-.83,1.95-.83,4V41.3c0,2.23.26,3.59.76,4.07s1.88.72,4.13.72H146l4.29,12-3.06,1.15A15.81,15.81,0,0,0,143,52.42a11.77,11.77,0,0,0-4.85-2.85,38.1,38.1,0,0,0-7.7-.53H110.12a31.51,31.51,0,0,0-8.29.79A11,11,0,0,0,97,53a18.67,18.67,0,0,0-3.68,6.24l-3.06-1.15,4.29-12a12.74,12.74,0,0,0,4.27-.62,6.17,6.17,0,0,0,2.36-1.76,8.66,8.66,0,0,0,1.63-3.08L112.58,8.9a9.37,9.37,0,0,0,.53-2.71q0-3.24-4.68-3.24Zm26.89.81H118.57L107,41.37a8.85,8.85,0,0,0-.45,1.94,1.55,1.55,0,0,0,.91,1.55,9.57,9.57,0,0,0,3.48.42h17.65a11.58,11.58,0,0,0,3.5-.33,1.69,1.69,0,0,0,1-1,18.09,18.09,0,0,0,.23-3.84Z"/><path class="cls-1" d="M170.13,14.27a17.83,17.83,0,0,1,9,2.15,15.09,15.09,0,0,1,6,6.26,19.76,19.76,0,0,1,2.18,9.38A19.34,19.34,0,0,1,185,41.45a15.51,15.51,0,0,1-6.08,6.27,18.44,18.44,0,0,1-9.2,2.17q-8.51,0-12.78-5.31a19.3,19.3,0,0,1-4.27-12.48,19.09,19.09,0,0,1,2.22-9.3,15.52,15.52,0,0,1,6.2-6.29A18.21,18.21,0,0,1,170.13,14.27Zm-.28,3.41a8.69,8.69,0,0,0-6.78,3.17q-3.52,3.93-3.52,11.46,0,7.24,3,11a8.91,8.91,0,0,0,7.35,3.37,9.23,9.23,0,0,0,5.32-1.58,10.93,10.93,0,0,0,3.78-5A21.14,21.14,0,0,0,180.43,32a20.66,20.66,0,0,0-1.54-8.19,9.55,9.55,0,0,0-9-6.09Z"/><path class="cls-1" d="M223.78,39.23,226,41.06q-6.6,8.84-15.85,8.83A16.24,16.24,0,0,1,198,44.75,17.65,17.65,0,0,1,193.06,32a18.19,18.19,0,0,1,2.3-9.16,16.18,16.18,0,0,1,6.4-6.31,19.19,19.19,0,0,1,9.4-2.25,16.58,16.58,0,0,1,10.09,3c2.7,2,4,4,4,6a3.18,3.18,0,0,1-.95,2.49,3,3,0,0,1-2.14.88A2.61,2.61,0,0,1,221,26.3a4.55,4.55,0,0,1-1.23-1,10.39,10.39,0,0,1-1-2,17.45,17.45,0,0,0-1.48-2.74,7.73,7.73,0,0,0-6.25-3,9.92,9.92,0,0,0-5.54,1.66,11.2,11.2,0,0,0-4,4.86,18.09,18.09,0,0,0-1.5,7.69q0,6.91,3.69,11a10,10,0,0,0,7.63,3.52,13.1,13.1,0,0,0,4.13-.69,14.68,14.68,0,0,0,4-2A33.75,33.75,0,0,0,223.78,39.23Z"/><path class="cls-1" d="M229.72,49V46.09h1.55c1.76,0,2.94-.36,3.53-1.09s.9-2.16.9-4.3V23.91a18.89,18.89,0,0,0-.26-4.1,2.15,2.15,0,0,0-1.22-1.28,9.23,9.23,0,0,0-3.58-.46h-.92v-3h17.76v3h-1a8.83,8.83,0,0,0-3.25.39A2.42,2.42,0,0,0,242,19.85a11.53,11.53,0,0,0-.38,3.63v9.15l13-10.31q3.06-2.47,3.06-3.29c0-.64-.91-1-2.74-1H253v-3h17.83v3a12.05,12.05,0,0,0-8.93,3l-10.26,7.76L263.79,42a13.51,13.51,0,0,0,4,3.42,11.25,11.25,0,0,0,4.34.66V49H253.45V46.09h1.45c2.17,0,3.26-.39,3.26-1.17a1.37,1.37,0,0,0-.35-.68c-.07-.07-.3-.39-.7-1-.05-.07-.18-.22-.39-.46L247.47,32l-5.86,4.43v4.62c0,2.23.3,3.63.91,4.18s1.84.83,3.69.83h1.27V49Z"/><path class="cls-1" d="M300.1,28.69V24.86c0-2.61-.73-4.46-2.19-5.58a10,10,0,0,0-6.16-1.67,11.25,11.25,0,0,0-3.46.48,6.17,6.17,0,0,0-2.37,1.3,5.27,5.27,0,0,0-1.33,1.88c-.11.26-.39,1.25-.84,3q-.81,3.16-3.27,3.16a3,3,0,0,1-2.27-.93,3.57,3.57,0,0,1-.86-2.51,7.4,7.4,0,0,1,1.72-4.56,12.59,12.59,0,0,1,5.26-3.69,21.83,21.83,0,0,1,8.35-1.46,19.4,19.4,0,0,1,7.7,1.39,9.7,9.7,0,0,1,4.71,4q1,1.79,1,6.53V39.7a24,24,0,0,0,.18,3.76,4.06,4.06,0,0,0,1.35,2.26,3.94,3.94,0,0,0,2.52.76,12.56,12.56,0,0,0,3.86-.75V48.8a19.11,19.11,0,0,1-5.23.84,11.06,11.06,0,0,1-4.21-.7,7,7,0,0,1-2.79-2.06,6.79,6.79,0,0,1-1.41-3.22,31.06,31.06,0,0,1-7.63,4.64,18.55,18.55,0,0,1-6.89,1.34A11.52,11.52,0,0,1,278,47a8,8,0,0,1-3-6.18,8.08,8.08,0,0,1,1.11-4.08,10.16,10.16,0,0,1,3.38-3.41,23.18,23.18,0,0,1,7.13-2.6A118.43,118.43,0,0,1,300.1,28.69Zm0,3.06Q291.92,32.94,290,33.4a18.74,18.74,0,0,0-5.49,1.93,7.07,7.07,0,0,0-2.36,2.27,5.05,5.05,0,0,0-.7,2.58,5,5,0,0,0,.79,2.66,5.53,5.53,0,0,0,2.23,2,6.7,6.7,0,0,0,3.06.74,15,15,0,0,0,5.18-1.09,36.31,36.31,0,0,0,7.38-4.26Z"/><path class="cls-1" d="M0,18H70.85v96H64.51V23.75H6.34V114H0Z"/><path class="cls-1" d="M99.29,62.85a29.82,29.82,0,0,1,22-8.85,30.23,30.23,0,0,1,30.81,30.81,30.25,30.25,0,0,1-30.81,30.82A30.27,30.27,0,0,1,90.43,84.81,29.8,29.8,0,0,1,99.29,62.85Zm4.32,40a24.87,24.87,0,0,0,35.28,0,24.85,24.85,0,0,0,7.13-18,24.88,24.88,0,0,0-7.13-18,24.87,24.87,0,0,0-35.28,0,24.88,24.88,0,0,0-7.13,18A24.85,24.85,0,0,0,103.61,102.81Z"/><path class="cls-1" d="M201.89,114V89.71a107.69,107.69,0,0,1-15.41,1.44q-9.36,0-13.83-3.17-5.33-3.89-5.32-15V55.29h5.76V73q0,8.07,3.88,10.8,2.75,1.88,8.79,1.87a107.12,107.12,0,0,0,16.13-1.44V55.29h5.76V114Z"/><path class="cls-1" d="M280.94,85.39H230.68q-.57,10.8,6.48,17.78a23.11,23.11,0,0,0,16.85,7,21,21,0,0,0,12.24-3.67,24.18,24.18,0,0,0,8.21-9.72l4.9,2.88a33.55,33.55,0,0,1-9.65,11.16q-6.34,4.83-16.13,4.83-13.4,0-21.17-8.71t-7.77-22q0-14.55,8.42-22.76A27.79,27.79,0,0,1,253.15,54a26.22,26.22,0,0,1,20.16,8.78Q281.37,71.57,280.94,85.39Zm-49.82-5.47h43.77a24,24,0,0,0-7.13-14.69,20.25,20.25,0,0,0-14.61-5.76,20.53,20.53,0,0,0-14.83,5.83A23.93,23.93,0,0,0,231.12,79.92Z"/><path class="cls-1" d="M309.16,114V60.76H288.71V55.29h46.66v5.47H314.92V114Z"/><path class="cls-1" d="M394.7,65.52V55.29h5.76V114H394.7V103.53q-7.92,12.09-22.9,12.1a27.36,27.36,0,0,1-20.3-8.5q-8.36-8.49-8.35-22.46,0-13.68,7.92-22.18T371.8,54Q386.48,54,394.7,65.52Zm-22.61-6A22.15,22.15,0,0,0,356,66.16q-6.76,6.7-6.77,18.07a28.18,28.18,0,0,0,6.2,18.22q6.18,7.71,16.84,7.7t16.64-7.56A28.27,28.27,0,0,0,395,84.23q0-11.94-7.06-18.35A23,23,0,0,0,372.09,59.47Z"/></g></g></svg>