<svg xmlns="http://www.w3.org/2000/svg" viewBox="0 0 57.23 57.23"><defs><style>.cls-1{fill:#f1effb;}</style></defs><g id="Слой_2" data-name="Слой 2"><g id="Слой_3" data-name="Слой 3"><g id="Слой_2-2" data-name="Слой 2"><g id="Слой_6" data-name="Слой 6"><path class="cls-1" d="M0,57.23V0H57.23V57.23ZM5.58,45a12.58,12.58,0,0,0,1.18.73A28.41,28.41,0,0,0,48.05,24.25c.4-3.43.75-6.48,3.83-8.53.37-.25.52-.83.95-1.48L48.7,15l3.08-4.35L51.33,10a7.71,7.71,0,0,1-9.06,0c-6.18-3.38-13.69,1.63-13.94,8.71v2.5A29.18,29.18,0,0,1,7.73,10.84c-2.5,5-1.15,9.18,2.51,13.28l-3.88-.8c.25,4.78,3,7.51,7.28,9.76l-4.11.58a32.73,32.73,0,0,0,4.08,4.48,27.56,27.56,0,0,0,5,2.5A24.16,24.16,0,0,1,5.58,45Z"/></g></g></g></g></svg>