<svg xmlns="http://www.w3.org/2000/svg" viewBox="0 0 22.87 22.87"><defs><style>.cls-1{fill:#a3a3a3;}</style></defs><g id="Слой_2" data-name="Слой 2"><g id="Слой_6" data-name="Слой 6"><path class="cls-1" d="M0,22.87V0H22.87V22.87ZM2.49,11.52a9.06,9.06,0,1,0,9.11-9A9.08,9.08,0,0,0,2.49,11.52Z"/><path class="cls-1" d="M6.15,9c1.5-.36,2.46-.18,2.91,1.21A6,6,0,0,0,10,11.51l.43-.13-.19-2.83c.58.08,1.68-.07,2.07.38s.18,1.56.49,2.55a11.79,11.79,0,0,0,.94-1.2c1-1.65,1-1.66,3.28-1.31-.52.79-.93,1.52-1.44,2.17a1,1,0,0,0,.09,1.53A15.46,15.46,0,0,1,17,14.26a3.09,3.09,0,0,1-4-1.11c-.18.09-.28.1-.3.15-.6,1.24-1.3,1.59-2.55.88A8,8,0,0,1,7.9,12.07,27.34,27.34,0,0,1,6.15,9Z"/></g></g></svg>