<svg xmlns="http://www.w3.org/2000/svg" viewBox="0 0 57.23 57.23"><defs><style>.cls-1{fill:#f1effb;}</style></defs><g id="Слой_2" data-name="Слой 2"><g id="Слой_3" data-name="Слой 3"><g id="Слой_2-2" data-name="Слой 2"><g id="Слой_6" data-name="Слой 6"><path class="cls-1" d="M0,0H57.23V57.23H0ZM53.4,28.58h0V17a7.17,7.17,0,0,0-6.15-7.36,85.46,85.46,0,0,0-36.51,0,7.18,7.18,0,0,0-6.26,7.51V39.49A7.19,7.19,0,0,0,10.79,47,86.09,86.09,0,0,0,47,47a7.31,7.31,0,0,0,6.41-7.76C53.45,35.76,53.4,32.18,53.4,28.58Z"/><path class="cls-1" d="M23.35,37V19.72l15,8.61Z"/></g></g></g></g></svg>