<svg xmlns="http://www.w3.org/2000/svg" viewBox="0 0 57.23 57.23"><defs><style>.cls-1{fill:#f1effb;}</style></defs><g id="Слой_2" data-name="Слой 2"><g id="Слой_3" data-name="Слой 3"><g id="Слой_2-2" data-name="Слой 2"><g id="Слой_6" data-name="Слой 6"><path class="cls-1" d="M57.23,57.23H0V0H57.23ZM29.08,51.55h9.36A13.19,13.19,0,0,0,51.63,38.36h0v-19A13.14,13.14,0,0,0,38.54,6.21H19.44a13.1,13.1,0,0,0-13.18,13v.13q-.15,9.51,0,19A13.15,13.15,0,0,0,19.39,51.55h0C22.52,51.6,25.85,51.55,29.08,51.55Z"/><path class="cls-1" d="M40.29,28.83A11.36,11.36,0,1,1,28.88,17.52h0A11.41,11.41,0,0,1,40.29,28.83ZM28.83,36.34a7.51,7.51,0,1,0-7.38-7.66,7.35,7.35,0,0,0,7.05,7.65Z"/><path class="cls-1" d="M44.64,15.62c-1,.82-1.82,1.85-2.35,1.72s-1.3-1.17-1.95-1.82c.63-.58,1.23-1.56,1.88-1.61S43.57,14.81,44.64,15.62Z"/></g></g></g></g></svg>