<svg xmlns="http://www.w3.org/2000/svg" viewBox="0 0 57.23 57.23"><defs><style>.cls-1{fill:#f1effb;}</style></defs><g id="Слой_2" data-name="Слой 2"><g id="Слой_3" data-name="Слой 3"><g id="Слой_2-2" data-name="Слой 2"><g id="Слой_6" data-name="Слой 6"><path class="cls-1" d="M0,57.23V0H57.23V57.23Zm36.54-7.51H45c3.33,0,4.68-1.35,4.71-4.65V12.79c0-3.31-1.38-4.66-4.71-4.68H12.74c-3.31,0-4.63,1.37-4.66,4.73v32c0,3.6,1.38,4.85,5,5H28.38a19.22,19.22,0,0,0,2.13-.22V32.86l-5.26-.33v-5.3l5.26-.35c0-11.87,5.43-11.87,12-10.61v2.5a14,14,0,0,1-.15,2.5c-6,.8-6.63,1.48-5.4,5.83l5.48.25c-.3,1.78,0,3.91-.93,4.73s-3.2.85-5,1.2Z"/></g></g></g></g></svg>